<svg xmlns="http://www.w3.org/2000/svg" xmlns:xlink="http://www.w3.org/1999/xlink" width="179px" height="60px" viewBox="0 0 179 60" version="1.1" class="mdl-js">
    <title>Logo/Main</title>
    <g id="Kit" stroke="none" stroke-width="1" fill="none" fill-rule="evenodd">
        <g id="8---Components---Controls" transform="translate(-179, -201)">
            <g id="Group-63" transform="translate(38, 144)">
                <g id="Logo/Main" transform="translate(141, 57)">
                    <g transform="translate(0, 8)" id="Group-21">
                        <g transform="translate(-0, 0)">
                            <path d="M18.2798286,45 C17.2004423,45 16.3254426,44.1177375 16.3254426,43.029392 L16.3254426,29.0032371 C16.3254426,28.59045 16.2069283,28.4710407 15.7971873,28.4710407 L14.1590154,28.4710407 C13.2957176,28.4710407 12.6595061,27.8158865 12.2867184,27.0666066 C11.9140187,26.3174154 0.0823860434,2.5368706 0.0823860434,2.5368706 C-0.0950774481,1.94009033 0.0177178896,1.2940737 0.386370358,0.794346738 C0.755374763,0.294353638 1.33677226,0 1.95459508,0 L12.4275806,0 C13.2907905,0 14.0516751,0.570609585 14.2994377,1.40434542 L21.8896313,15.9219769 C21.9967077,16.2909391 22.2343522,16.5200878 22.4996236,16.5200878 C22.7653349,16.5200878 23.0033313,16.2909391 23.1060085,15.936526 L30.7006013,1.40434542 C30.9483639,0.570609585 31.7092485,0 32.5724584,0 L43.0454439,0 C43.6631787,0 44.2446642,0.294353638 44.6136686,0.794346738 C44.9823211,1.2940737 45.0950284,1.94009033 44.9176529,2.5368706 C44.9176529,2.5368706 32.962227,26.5588954 32.7132326,27.0666066 C32.4643262,27.5743178 31.7042334,28.4710407 30.8410235,28.4710407 L29.2021478,28.4710407 C28.7930227,28.4710407 28.6745964,28.59045 28.6745964,29.0032371 L28.6745964,43.029392 C28.6745964,44.1177375 27.7995087,45 26.7202104,45 L18.2798286,45 Z" id="Fill-1" fill="#004BFF"/>
                            <path d="M55.7255844,14.2009552 L58.6086594,19.3731447 L61.510508,14.2009552 L65.2360038,14.2009552 L60.1625285,22.3286553 L60.1625285,27.8119948 L57.0734753,27.8119948 L57.0734753,22.3286553 L52,14.2009552 L55.7255844,14.2009552 Z M72.0693442,14.2009368 L77.3487977,27.8119764 L73.9601639,27.8119764 L73.0615995,25.2648329 L67.7634609,25.2648329 L66.8648079,27.8119764 L63.4762627,27.8119764 L68.7557162,14.2009368 L72.0693442,14.2009368 Z M79.2959205,14.2009552 L82.1789955,19.3731447 L85.0808442,14.2009552 L88.80634,14.2009552 L83.7328647,22.3286553 L83.7328647,27.8119948 L80.6438114,27.8119948 L80.6438114,22.3286553 L75.5703361,14.2009552 L79.2959205,14.2009552 Z M95.6396892,14.2009368 L100.919143,27.8119764 L97.5305089,27.8119764 L96.6319445,25.2648329 L91.3338059,25.2648329 L90.4351529,27.8119764 L87.0466077,27.8119764 L92.3260612,14.2009368 L95.6396892,14.2009368 Z M70.4030991,17.7981539 L68.7744013,22.3870408 L72.0318855,22.3870408 L70.4030991,17.7981539 Z M93.9734441,17.7981539 L92.3447463,22.3870408 L95.6022305,22.3870408 L93.9734441,17.7981539 Z M106.959449,20.9999632 C106.959449,17.2472171 109.430656,14.0000552 113.586882,14.0000552 C116.825681,14.0000552 119.034767,15.9444894 119.858502,18.5888501 L116.881825,19.3666789 C116.413814,17.9278289 115.290497,16.8778473 113.586882,16.8778473 C111.284106,16.8778473 110.029817,18.8027829 110.029817,20.9999632 C110.029817,23.1972355 111.284106,25.1221711 113.586882,25.1221711 C115.290497,25.1221711 116.413814,24.0721895 116.881825,22.6333395 L119.858502,23.4111683 C119.034767,26.055529 116.825681,27.9999632 113.586882,27.9999632 C109.430656,27.9999632 106.959449,24.7528013 106.959449,20.9999632 M128.526758,22.380575 L126.897972,17.7916881 L125.269274,22.380575 L128.526758,22.380575 Z M128.564217,14.194471 L133.84367,27.8055106 L130.455036,27.8055106 L129.556472,25.2583671 L124.258333,25.2583671 L123.35968,27.8055106 L119.971135,27.8055106 L125.250589,14.194471 L128.564217,14.194471 Z M139.216885,16.6833579 C138.168486,16.6833579 137.251148,17.2666605 137.251148,18.1611132 C137.251148,18.9388501 137.943823,19.1915962 138.93599,19.3667157 L140.602323,19.6194618 C143.092216,19.9888317 144.571167,21.2528381 144.571167,23.7416697 C144.571167,26.3083119 142.287165,28 139.44146,28 C136.87665,28 134.367985,26.561058 134.143321,23.4500184 L137.138772,23.1971803 C137.307292,24.7332475 138.336917,25.3166421 139.516377,25.3166421 C140.639605,25.3166421 141.482114,24.7721527 141.482114,23.8388868 C141.482114,23.0611499 140.901727,22.6916881 139.834731,22.5361591 L138.149713,22.2833211 C135.510075,21.8944526 134.18078,20.3971987 134.18078,18.2972355 C134.18078,15.6722815 136.502241,14 139.23557,14 C141.575805,14 144.12193,15.3028197 144.440107,18.4138593 L141.369827,18.6472907 C141.145164,17.2277553 140.246511,16.6833579 139.216885,16.6833579 M146.55574,27.8055014 L149.62602,27.8055014 L149.62602,14.1944618 L146.55574,14.1944618 L146.55574,27.8055014 Z M155.392294,14.1944802 L160.652974,22.3610856 L160.652974,14.1944802 L163.742027,14.1944802 L163.742027,27.8055198 L160.652974,27.8055198 L155.392294,19.6389144 L155.392294,27.8055198 L152.322014,27.8055198 L152.322014,14.1944802 L155.392294,14.1944802 Z M172.372656,25.1222079 C174.675343,25.1222079 175.92972,23.1971803 175.92972,21 C175.92972,18.8028197 174.675343,16.8777921 172.372656,16.8777921 C170.069879,16.8777921 168.815591,18.8028197 168.815591,21 C168.815591,23.1971803 170.069879,25.1222079 172.372656,25.1222079 M165.745223,21 C165.745223,17.2472539 168.21643,14 172.372656,14 C176.528793,14 179,17.2472539 179,21 C179,24.7527461 176.528793,28 172.372656,28 C168.21643,28 165.745223,24.7527461 165.745223,21" id="Combined-Shape" fill="#FFFFFF"/>
                        </g>
                    </g>
                </g>
            </g>
        </g>
    </g>
</svg>